{
  "accessors": [
    {
      "bufferView": 1,
      "componentType": 5126,
      "count": 294,
      "max": [
        24.015750885009766,
        21.653539657592773,
        81.10236358642578
      ],
      "min": [
        0.0,
        0.7874016165733337,
        0.0
      ],
      "type": "VEC3"
    },
    {
      "bufferView": 1,
      "byteOffset": 3528,
      "componentType": 5126,
      "count": 294,
      "max": [
        1.0,
        1.0,
        1.0
      ],
      "min": [
        -1.0,
        -1.0,
        -1.0
      ],
      "type": "VEC3"
    },
    {
      "bufferView": 0,
      "componentType": 5125,
      "count": 633,
      "type": "SCALAR"
    },
    {
      "bufferView": 1,
      "byteOffset": 7056,
      "componentType": 5126,
      "count": 2,
      "max": [
        0.29527559876441956,
        1.377953052520752,
        78.94747161865234
      ],
      "min": [
        0.29527559876441956,
        1.377953052520752,
        18.78430938720703
      ],
      "type": "VEC3"
    },
    {
      "bufferView": 0,
      "byteOffset": 2532,
      "componentType": 5125,
      "count": 2,
      "type": "SCALAR"
    },
    {
      "bufferView": 1,
      "byteOffset": 7080,
      "componentType": 5126,
      "count": 26,
      "max": [
        23.425199508666992,
        0.39370080828666687,
        7.08661413192749
      ],
      "min": [
        0.0,
        0.0,
        0.0
      ],
      "type": "VEC3"
    },
    {
      "bufferView": 1,
      "byteOffset": 7392,
      "componentType": 5126,
      "count": 26,
      "max": [
        1.0,
        1.0,
        1.0
      ],
      "min": [
        -1.0,
        -6.831170900653387e-16,
        -1.0
      ],
      "type": "VEC3"
    },
    {
      "bufferView": 0,
      "byteOffset": 2540,
      "componentType": 5125,
      "count": 48,
      "type": "SCALAR"
    },
    {
      "bufferView": 1,
      "byteOffset": 7704,
      "componentType": 5126,
      "count": 220,
      "max": [
        0.7874016165733337,
        8.661417007446289,
        0.7874016165733337
      ],
      "min": [
        0.0,
        0.0,
        0.0
      ],
      "type": "VEC3"
    },
    {
      "bufferView": 1,
      "byteOffset": 10344,
      "componentType": 5126,
      "count": 220,
      "max": [
        1.0,
        1.0,
        1.0
      ],
      "min": [
        -1.0,
        -1.0,
        -1.0
      ],
      "type": "VEC3"
    },
    {
      "bufferView": 0,
      "byteOffset": 2732,
      "componentType": 5125,
      "count": 582,
      "type": "SCALAR"
    },
    {
      "bufferView": 1,
      "byteOffset": 12984,
      "componentType": 5126,
      "count": 33,
      "max": [
        11.66786003112793,
        0.5905511975288391,
        60.8267707824707
      ],
      "min": [
        0.0,
        0.0,
        0.0
      ],
      "type": "VEC3"
    },
    {
      "bufferView": 1,
      "byteOffset": 13380,
      "componentType": 5126,
      "count": 33,
      "max": [
        1.0,
        1.0,
        1.0
      ],
      "min": [
        -1.0,
        -1.0,
        -1.0
      ],
      "type": "VEC3"
    },
    {
      "bufferView": 0,
      "byteOffset": 5060,
      "componentType": 5125,
      "count": 63,
      "type": "SCALAR"
    },
    {
      "bufferView": 1,
      "byteOffset": 13776,
      "componentType": 5126,
      "count": 220,
      "max": [
        0.7874016165733337,
        8.661417007446289,
        0.7874016165733337
      ],
      "min": [
        0.0,
        0.0,
        0.0
      ],
      "type": "VEC3"
    },
    {
      "bufferView": 1,
      "byteOffset": 16416,
      "componentType": 5126,
      "count": 220,
      "max": [
        1.0,
        1.0,
        1.0
      ],
      "min": [
        -1.0,
        -1.0,
        -1.0
      ],
      "type": "VEC3"
    },
    {
      "bufferView": 0,
      "byteOffset": 5312,
      "componentType": 5125,
      "count": 582,
      "type": "SCALAR"
    },
    {
      "bufferView": 1,
      "byteOffset": 19056,
      "componentType": 5126,
      "count": 26,
      "max": [
        23.425199508666992,
        0.39370080828666687,
        7.08661413192749
      ],
      "min": [
        0.0,
        0.0,
        0.0
      ],
      "type": "VEC3"
    },
    {
      "bufferView": 1,
      "byteOffset": 19368,
      "componentType": 5126,
      "count": 26,
      "max": [
        1.0,
        1.0,
        1.0
      ],
      "min": [
        -1.0,
        -6.831170900653387e-16,
        -1.0
      ],
      "type": "VEC3"
    },
    {
      "bufferView": 0,
      "byteOffset": 7640,
      "componentType": 5125,
      "count": 48,
      "type": "SCALAR"
    },
    {
      "bufferView": 1,
      "byteOffset": 19680,
      "componentType": 5126,
      "count": 28,
      "max": [
        11.667360305786133,
        0.5905511975288391,
        60.8267707824707
      ],
      "min": [
        0.0,
        0.0,
        0.0
      ],
      "type": "VEC3"
    },
    {
      "bufferView": 1,
      "byteOffset": 20016,
      "componentType": 5126,
      "count": 28,
      "max": [
        1.0,
        1.0,
        0.0
      ],
      "min": [
        -1.247245003403643e-14,
        -5.563601879546298e-13,
        -1.0
      ],
      "type": "VEC3"
    },
    {
      "bufferView": 0,
      "byteOffset": 7832,
      "componentType": 5125,
      "count": 48,
      "type": "SCALAR"
    },
    {
      "bufferView": 1,
      "byteOffset": 20352,
      "componentType": 5126,
      "count": 220,
      "max": [
        0.7874016165733337,
        8.661417007446289,
        0.7874016165733337
      ],
      "min": [
        0.0,
        0.0,
        0.0
      ],
      "type": "VEC3"
    },
    {
      "bufferView": 1,
      "byteOffset": 22992,
      "componentType": 5126,
      "count": 220,
      "max": [
        1.0,
        1.0,
        1.0
      ],
      "min": [
        -1.0,
        -1.0,
        -1.0
      ],
      "type": "VEC3"
    },
    {
      "bufferView": 0,
      "byteOffset": 8024,
      "componentType": 5125,
      "count": 582,
      "type": "SCALAR"
    },
    {
      "bufferView": 1,
      "byteOffset": 25632,
      "componentType": 5126,
      "count": 220,
      "max": [
        0.7874016165733337,
        8.661417007446289,
        0.7874016165733337
      ],
      "min": [
        0.0,
        0.0,
        0.0
      ],
      "type": "VEC3"
    },
    {
      "bufferView": 1,
      "byteOffset": 28272,
      "componentType": 5126,
      "count": 220,
      "max": [
        1.0,
        1.0,
        1.0
      ],
      "min": [
        -1.0,
        -1.0,
        -1.0
      ],
      "type": "VEC3"
    },
    {
      "bufferView": 0,
      "byteOffset": 10352,
      "componentType": 5125,
      "count": 582,
      "type": "SCALAR"
    }
  ],
  "asset": {
    "extras": {
      "author": "JeanLescano (https://sketchfab.com/JeanLescano)",
      "license": "CC-BY-4.0 (http://creativecommons.org/licenses/by/4.0/)",
      "source": "https://sketchfab.com/3d-models/closet-80dadbfbb2c342fea84326620c002b30",
      "title": "Closet"
    },
    "generator": "Sketchfab-12.68.0",
    "version": "2.0"
  },
  "bufferViews": [
    {
      "buffer": 0,
      "byteLength": 12680,
      "name": "floatBufferViews",
      "target": 34963
    },
    {
      "buffer": 0,
      "byteLength": 30912,
      "byteOffset": 12680,
      "byteStride": 12,
      "name": "floatBufferViews",
      "target": 34962
    }
  ],
  "buffers": [
    {
      "byteLength": 43592,
      "uri": "scene.bin"
    }
  ],
  "materials": [
    {
      "name": "material",
      "pbrMetallicRoughness": {
        "metallicFactor": 0.0,
        "roughnessFactor": 0.6
      }
    },
    {
      "name": "edge_color000255",
      "pbrMetallicRoughness": {
        "metallicFactor": 0.0,
        "roughnessFactor": 0.6
      }
    }
  ],
  "meshes": [
    {
      "name": "Material2",
      "primitives": [
        {
          "attributes": {
            "NORMAL": 1,
            "POSITION": 0
          },
          "indices": 2,
          "material": 0,
          "mode": 4
        }
      ]
    },
    {
      "name": "Material2",
      "primitives": [
        {
          "attributes": {
            "POSITION": 3
          },
          "indices": 4,
          "material": 1,
          "mode": 1
        }
      ]
    },
    {
      "name": "Material2",
      "primitives": [
        {
          "attributes": {
            "NORMAL": 6,
            "POSITION": 5
          },
          "indices": 7,
          "material": 0,
          "mode": 4
        }
      ]
    },
    {
      "name": "Material2",
      "primitives": [
        {
          "attributes": {
            "NORMAL": 9,
            "POSITION": 8
          },
          "indices": 10,
          "material": 0,
          "mode": 4
        }
      ]
    },
    {
      "name": "Material2",
      "primitives": [
        {
          "attributes": {
            "NORMAL": 12,
            "POSITION": 11
          },
          "indices": 13,
          "material": 0,
          "mode": 4
        }
      ]
    },
    {
      "name": "Material2",
      "primitives": [
        {
          "attributes": {
            "NORMAL": 15,
            "POSITION": 14
          },
          "indices": 16,
          "material": 0,
          "mode": 4
        }
      ]
    },
    {
      "name": "Material2",
      "primitives": [
        {
          "attributes": {
            "NORMAL": 18,
            "POSITION": 17
          },
          "indices": 19,
          "material": 0,
          "mode": 4
        }
      ]
    },
    {
      "name": "Material2",
      "primitives": [
        {
          "attributes": {
            "NORMAL": 21,
            "POSITION": 20
          },
          "indices": 22,
          "material": 0,
          "mode": 4
        }
      ]
    },
    {
      "name": "Material2",
      "primitives": [
        {
          "attributes": {
            "NORMAL": 24,
            "POSITION": 23
          },
          "indices": 25,
          "material": 0,
          "mode": 4
        }
      ]
    },
    {
      "name": "Material2",
      "primitives": [
        {
          "attributes": {
            "NORMAL": 27,
            "POSITION": 26
          },
          "indices": 28,
          "material": 0,
          "mode": 4
        }
      ]
    }
  ],
  "nodes": [
    {
      "children": [
        1
      ],
      "matrix": [
        1.0,
        0.0,
        0.0,
        0.0,
        0.0,
        2.220446049250313e-16,
        -1.0,
        0.0,
        0.0,
        1.0,
        2.220446049250313e-16,
        0.0,
        0.0,
        0.0,
        0.0,
        1.0
      ],
      "name": "Sketchfab_model"
    },
    {
      "children": [
        2
      ],
      "name": "Collada visual scene group"
    },
    {
      "children": [
        3,
        5,
        7
      ],
      "name": "SketchUp"
    },
    {
      "children": [
        4
      ],
      "matrix": [
        -0.6527954,
        -0.7575343,
        -1.734723e-18,
        0.0,
        -0.01586905,
        0.01367495,
        0.9997805,
        0.0,
        -0.7573681,
        0.6526521,
        -0.02094829,
        0.0,
        -123.4828,
        218.328,
        37.54219,
        1.0
      ],
      "name": "skp_camera_Last_Saved_SketchUp_View"
    },
    {
      "name": "ID1"
    },
    {
      "children": [
        6
      ],
      "matrix": [
        -0.8048337,
        0.5935004,
        -3.469447e-18,
        0.0,
        -0.0355673,
        -0.04823209,
        0.9982027,
        0.0,
        0.5924337,
        0.8033872,
        0.05992802,
        0.0,
        17.85132,
        109.8144,
        10.85297,
        1.0
      ],
      "name": "skp_camera_Scene_1"
    },
    {
      "name": "ID2"
    },
    {
      "children": [
        8,
        9,
        10,
        12,
        14,
        16,
        18,
        20,
        22,
        24
      ],
      "matrix": [
        -7.136831e-17,
        -1.0,
        5.365381e-09,
        0.0,
        1.0,
        -3.748278e-17,
        6.315586e-09,
        0.0,
        -6.315586e-09,
        5.365381e-09,
        1.0,
        0.0,
        -19.91931,
        118.9146,
        -8.702594e-09,
        1.0
      ],
      "name": "group_0"
    },
    {
      "mesh": 0,
      "name": "Material2"
    },
    {
      "mesh": 1,
      "name": "Material2"
    },
    {
      "children": [
        11
      ],
      "matrix": [
        -1.0,
        3.053113e-16,
        -7.01905e-17,
        0.0,
        -4.57967e-16,
        -1.5,
        8.417078e-16,
        0.0,
        -7.194185e-17,
        5.751397e-16,
        1.015072,
        0.0,
        23.72047,
        1.377953,
        11.39498,
        1.0
      ],
      "name": "group_1"
    },
    {
      "mesh": 2,
      "name": "Material2"
    },
    {
      "children": [
        13
      ],
      "matrix": [
        -1.0,
        3.053113e-16,
        -7.01905e-17,
        0.0,
        7.338789e-17,
        -5.44234e-16,
        -1.035475,
        0.0,
        -3.053113e-16,
        -1.0,
        1.468162e-16,
        0.0,
        14.41482,
        0.7874016,
        54.00352,
        1.0
      ],
      "name": "group_2"
    },
    {
      "mesh": 3,
      "name": "Material2"
    },
    {
      "children": [
        15
      ],
      "matrix": [
        -1.0,
        3.053113e-16,
        -7.01905e-17,
        0.0,
        -3.053113e-16,
        -1.0,
        5.611385e-16,
        0.0,
        -7.053123e-17,
        5.638625e-16,
        0.9951691,
        0.0,
        23.72047,
        1.377953,
        18.78431,
        1.0
      ],
      "name": "group_3"
    },
    {
      "mesh": 4,
      "name": "Material2"
    },
    {
      "children": [
        17
      ],
      "matrix": [
        3.458024e-16,
        5.638625e-16,
        0.9951691,
        0.0,
        -0.929288,
        3.216492e-16,
        4.380239e-16,
        0.0,
        -7.21645e-16,
        -1.0,
        5.611385e-16,
        0.0,
        15.88573,
        0.7874016,
        7.367289,
        1.0
      ],
      "name": "group_4"
    },
    {
      "mesh": 5,
      "name": "Material2"
    },
    {
      "children": [
        19
      ],
      "matrix": [
        -1.0,
        3.053113e-16,
        -7.01905e-17,
        0.0,
        -4.57967e-16,
        -1.5,
        8.417078e-16,
        0.0,
        -7.194185e-17,
        5.751397e-16,
        1.015072,
        0.0,
        23.72047,
        1.377953,
        4.091851,
        1.0
      ],
      "name": "group_5"
    },
    {
      "mesh": 6,
      "name": "Material2"
    },
    {
      "children": [
        21
      ],
      "matrix": [
        -1.0,
        3.053113e-16,
        -7.01905e-17,
        0.0,
        -3.053113e-16,
        -1.0,
        5.611385e-16,
        0.0,
        -7.053123e-17,
        5.638625e-16,
        0.9951691,
        0.0,
        11.96264,
        1.377953,
        18.78431,
        1.0
      ],
      "name": "group_6"
    },
    {
      "mesh": 7,
      "name": "Material2"
    },
    {
      "children": [
        23
      ],
      "matrix": [
        -1.0,
        3.053113e-16,
        -7.01905e-17,
        0.0,
        7.338789e-17,
        -5.44234e-16,
        -1.035475,
        0.0,
        -3.053113e-16,
        -1.0,
        1.468162e-16,
        0.0,
        10.38784,
        0.7874016,
        54.00352,
        1.0
      ],
      "name": "group_7"
    },
    {
      "mesh": 8,
      "name": "Material2"
    },
    {
      "children": [
        25
      ],
      "matrix": [
        3.458024e-16,
        5.638625e-16,
        0.9951691,
        0.0,
        -0.929288,
        3.216492e-16,
        4.380239e-16,
        0.0,
        -7.21645e-16,
        -1.0,
        5.611385e-16,
        0.0,
        15.88573,
        0.7874016,
        14.67042,
        1.0
      ],
      "name": "group_8"
    },
    {
      "mesh": 9,
      "name": "Material2"
    }
  ],
  "scene": 0,
  "scenes": [
    {
      "name": "Sketchfab_Scene",
      "nodes": [
        0
      ]
    }
  ]
}
