{
  "accessors": [
    {
      "bufferView": 2,
      "componentType": 5126,
      "count": 36848,
      "max": [
        0.3157612383365631,
        0.9664610028266907,
        0.32799649238586426
      ],
      "min": [
        -0.3176412880420685,
        -0.9159579277038574,
        -0.25077730417251587
      ],
      "type": "VEC3"
    },
    {
      "bufferView": 2,
      "byteOffset": 442176,
      "componentType": 5126,
      "count": 36848,
      "max": [
        0.9999462366104126,
        0.9999860525131226,
        0.9999973773956299
      ],
      "min": [
        -0.9999593496322632,
        -0.9997221231460571,
        -0.9999973773956299
      ],
      "type": "VEC3"
    },
    {
      "bufferView": 1,
      "componentType": 5126,
      "count": 36848,
      "max": [
        0.9994028806686401,
        0.9999983906745911
      ],
      "min": [
        0.00010789440420921892,
        5.9604644775390625e-06
      ],
      "type": "VEC2"
    },
    {
      "bufferView": 1,
      "byteOffset": 294784,
      "componentType": 5126,
      "count": 36848,
      "max": [
        0.9994028806686401,
        0.9999983906745911
      ],
      "min": [
        0.00010789440420921892,
        5.9604644775390625e-06
      ],
      "type": "VEC2"
    },
    {
      "bufferView": 1,
      "byteOffset": 589568,
      "componentType": 5126,
      "count": 36848,
      "max": [
        0.9994028806686401,
        0.9999983906745911
      ],
      "min": [
        0.00010789440420921892,
        5.9604644775390625e-06
      ],
      "type": "VEC2"
    },
    {
      "bufferView": 0,
      "componentType": 5125,
      "count": 196011,
      "type": "SCALAR"
    }
  ],
  "asset": {
    "extras": {
      "author": "alexdelker (https://sketchfab.com/alexdelker)",
      "license": "CC-BY-4.0 (http://creativecommons.org/licenses/by/4.0/)",
      "source": "https://sketchfab.com/3d-models/240-chinese-warrior-statue-unknown-artist-e71dc521b7ae46ef94858cddbfad1912",
      "title": "240: Chinese Warrior Statue - Unknown Artist"
    },
    "generator": "Sketchfab-12.66.0",
    "version": "2.0"
  },
  "bufferViews": [
    {
      "buffer": 0,
      "byteLength": 784044,
      "name": "floatBufferViews",
      "target": 34963
    },
    {
      "buffer": 0,
      "byteLength": 884352,
      "byteOffset": 784044,
      "byteStride": 8,
      "name": "floatBufferViews",
      "target": 34962
    },
    {
      "buffer": 0,
      "byteLength": 884352,
      "byteOffset": 1668396,
      "byteStride": 12,
      "name": "floatBufferViews",
      "target": 34962
    }
  ],
  "buffers": [
    {
      "byteLength": 2552748,
      "uri": "scene.bin"
    }
  ],
  "extensionsUsed": [
    "KHR_materials_unlit"
  ],
  "images": [
    {
      "uri": "textures/Material_0_baseColor.jpeg"
    }
  ],
  "materials": [
    {
      "extensions": {
        "KHR_materials_unlit": {}
      },
      "name": "Material_0",
      "pbrMetallicRoughness": {
        "baseColorTexture": {
          "index": 0
        },
        "metallicFactor": 0.0
      }
    }
  ],
  "meshes": [
    {
      "name": "Object_0",
      "primitives": [
        {
          "attributes": {
            "NORMAL": 1,
            "POSITION": 0,
            "TEXCOORD_0": 2,
            "TEXCOORD_1": 3,
            "TEXCOORD_2": 4
          },
          "indices": 5,
          "material": 0,
          "mode": 4
        }
      ]
    }
  ],
  "nodes": [
    {
      "children": [
        1
      ],
      "matrix": [
        1.0,
        0.0,
        0.0,
        0.0,
        0.0,
        2.220446049250313e-16,
        -1.0,
        0.0,
        0.0,
        1.0,
        2.220446049250313e-16,
        0.0,
        0.0,
        0.0,
        0.0,
        1.0
      ],
      "name": "Sketchfab_model"
    },
    {
      "children": [
        2
      ],
      "name": "root"
    },
    {
      "children": [
        3
      ],
      "matrix": [
        1.0,
        0.0,
        0.0,
        0.0,
        0.0,
        2.220446049250313e-16,
        1.0,
        0.0,
        0.0,
        -1.0,
        2.220446049250313e-16,
        0.0,
        0.0,
        0.0,
        0.0,
        1.0
      ],
      "name": "GLTF_SceneRootNode"
    },
    {
      "children": [
        4
      ],
      "matrix": [
        0.9991257769654629,
        0.0015202908161463394,
        0.04177763180212995,
        0.0,
        -0.0015030754336642338,
        0.9999987720441681,
        -0.00044347987187590967,
        0.0,
        -0.041778254719419684,
        0.000380297239518111,
        0.9991268351949161,
        0.0,
        0.026117771863937378,
        0.014248199760913849,
        0.0,
        1.0
      ],
      "name": "Mesh_0_0"
    },
    {
      "mesh": 0,
      "name": "Object_4"
    }
  ],
  "samplers": [
    {
      "magFilter": 9729,
      "minFilter": 9987,
      "wrapS": 10497,
      "wrapT": 10497
    }
  ],
  "scene": 0,
  "scenes": [
    {
      "name": "Sketchfab_Scene",
      "nodes": [
        0
      ]
    }
  ],
  "textures": [
    {
      "sampler": 0,
      "source": 0
    }
  ]
}
