{
  "accessors": [
    {
      "bufferView": 2,
      "componentType": 5126,
      "count": 456,
      "max": [
        0.45632266998291016,
        1.0072029829025269,
        0.4294099807739258
      ],
      "min": [
        -0.45632266998291016,
        -1.0072029829025269,
        0.2936268150806427
      ],
      "type": "VEC3"
    },
    {
      "bufferView": 2,
      "byteOffset": 5472,
      "componentType": 5126,
      "count": 456,
      "max": [
        0.998948872089386,
        0.9993849992752075,
        1.0
      ],
      "min": [
        -0.998948872089386,
        -0.9993849992752075,
        -1.0
      ],
      "type": "VEC3"
    },
    {
      "bufferView": 1,
      "componentType": 5126,
      "count": 456,
      "max": [
        0.9476527571678162,
        0.9769669771194458
      ],
      "min": [
        0.031820058822631836,
        0.02267393469810486
      ],
      "type": "VEC2"
    },
    {
      "bufferView": 0,
      "componentType": 5125,
      "count": 2316,
      "type": "SCALAR"
    },
    {
      "bufferView": 2,
      "byteOffset": 10944,
      "componentType": 5126,
      "count": 270,
      "max": [
        0.33000001311302185,
        0.25499996542930603,
        0.08625216782093048
      ],
      "min": [
        -0.33000001311302185,
        -0.25499996542930603,
        -0.08625216782093048
      ],
      "type": "VEC3"
    },
    {
      "bufferView": 2,
      "byteOffset": 14184,
      "componentType": 5126,
      "count": 270,
      "max": [
        1.0,
        1.0,
        1.0
      ],
      "min": [
        -1.0,
        -1.0,
        -1.0
      ],
      "type": "VEC3"
    },
    {
      "bufferView": 1,
      "byteOffset": 3648,
      "componentType": 5126,
      "count": 270,
      "max": [
        0.7864054441452026,
        0.9820657968521118
      ],
      "min": [
        0.21359455585479736,
        0.01793771982192993
      ],
      "type": "VEC2"
    },
    {
      "bufferView": 0,
      "byteOffset": 9264,
      "componentType": 5125,
      "count": 1488,
      "type": "SCALAR"
    },
    {
      "bufferView": 2,
      "byteOffset": 17424,
      "componentType": 5126,
      "count": 3124,
      "max": [
        0.5,
        1.053475260734558,
        0.9185489416122437
      ],
      "min": [
        -0.5,
        -1.053475260734558,
        0.0
      ],
      "type": "VEC3"
    },
    {
      "bufferView": 2,
      "byteOffset": 54912,
      "componentType": 5126,
      "count": 3124,
      "max": [
        1.0,
        1.0,
        1.0
      ],
      "min": [
        -1.0,
        -1.0,
        -1.0
      ],
      "type": "VEC3"
    },
    {
      "bufferView": 1,
      "byteOffset": 5808,
      "componentType": 5126,
      "count": 3124,
      "max": [
        0.9829739332199097,
        0.9884138107299805
      ],
      "min": [
        0.02015070617198944,
        0.008469045162200928
      ],
      "type": "VEC2"
    },
    {
      "bufferView": 1,
      "byteOffset": 30800,
      "componentType": 5126,
      "count": 3124,
      "max": [
        0.9829739332199097,
        0.9884138107299805
      ],
      "min": [
        0.02015070617198944,
        0.008469045162200928
      ],
      "type": "VEC2"
    },
    {
      "bufferView": 0,
      "byteOffset": 15216,
      "componentType": 5125,
      "count": 15108,
      "type": "SCALAR"
    }
  ],
  "asset": {
    "extras": {
      "author": "Mifu Saja (https://sketchfab.com/mifusaja)",
      "license": "CC-BY-4.0 (http://creativecommons.org/licenses/by/4.0/)",
      "source": "https://sketchfab.com/3d-models/bed-sample-b547d81073b64d3e97200fd3ae9a74af",
      "title": "Bed - Sample"
    },
    "generator": "Sketchfab-12.66.0",
    "version": "2.0"
  },
  "bufferViews": [
    {
      "buffer": 0,
      "byteLength": 75648,
      "name": "floatBufferViews",
      "target": 34963
    },
    {
      "buffer": 0,
      "byteLength": 55792,
      "byteOffset": 75648,
      "byteStride": 8,
      "name": "floatBufferViews",
      "target": 34962
    },
    {
      "buffer": 0,
      "byteLength": 92400,
      "byteOffset": 131440,
      "byteStride": 12,
      "name": "floatBufferViews",
      "target": 34962
    }
  ],
  "buffers": [
    {
      "byteLength": 223840,
      "uri": "scene.bin"
    }
  ],
  "images": [
    {
      "uri": "textures/Bed_Mattress_baseColor.png"
    },
    {
      "uri": "textures/Bed_Pillow_baseColor.png"
    },
    {
      "uri": "textures/Bed_Frame_baseColor.png"
    },
    {
      "uri": "textures/Bed_Frame_metallicRoughness.png"
    }
  ],
  "materials": [
    {
      "doubleSided": true,
      "name": "Bed_Mattress",
      "pbrMetallicRoughness": {
        "baseColorTexture": {
          "index": 0
        },
        "metallicFactor": 0.0,
        "roughnessFactor": 0.8868629150101524
      }
    },
    {
      "doubleSided": true,
      "name": "Bed_Pillow",
      "pbrMetallicRoughness": {
        "baseColorTexture": {
          "index": 1
        },
        "metallicFactor": 0.0,
        "roughnessFactor": 0.8211145618000169
      }
    },
    {
      "doubleSided": true,
      "name": "Bed_Frame",
      "pbrMetallicRoughness": {
        "baseColorTexture": {
          "index": 2
        },
        "metallicRoughnessTexture": {
          "index": 3
        }
      }
    }
  ],
  "meshes": [
    {
      "name": "Bed Mattress_Bed Mattress_0",
      "primitives": [
        {
          "attributes": {
            "NORMAL": 1,
            "POSITION": 0,
            "TEXCOORD_0": 2
          },
          "indices": 3,
          "material": 0,
          "mode": 4
        }
      ]
    },
    {
      "name": "Bed Pillow_Bed Pillow_0",
      "primitives": [
        {
          "attributes": {
            "NORMAL": 5,
            "POSITION": 4,
            "TEXCOORD_0": 6
          },
          "indices": 7,
          "material": 1,
          "mode": 4
        }
      ]
    },
    {
      "name": "Bed Frame_Bed Frame_0",
      "primitives": [
        {
          "attributes": {
            "NORMAL": 9,
            "POSITION": 8,
            "TEXCOORD_0": 10,
            "TEXCOORD_1": 11
          },
          "indices": 12,
          "material": 2,
          "mode": 4
        }
      ]
    }
  ],
  "nodes": [
    {
      "children": [
        1
      ],
      "matrix": [
        1.0,
        0.0,
        0.0,
        0.0,
        0.0,
        2.220446049250313e-16,
        -1.0,
        0.0,
        0.0,
        1.0,
        2.220446049250313e-16,
        0.0,
        0.0,
        0.0,
        0.0,
        1.0
      ],
      "name": "Sketchfab_model"
    },
    {
      "children": [
        2
      ],
      "matrix": [
        1.0,
        0.0,
        0.0,
        0.0,
        0.0,
        0.0,
        1.0,
        0.0,
        0.0,
        -1.0,
        0.0,
        0.0,
        0.0,
        0.0,
        0.0,
        1.0
      ],
      "name": "8ace6f3099114b3cb506c301c6c3cd7e.fbx"
    },
    {
      "children": [
        3,
        5,
        7
      ],
      "name": "RootNode"
    },
    {
      "children": [
        4
      ],
      "matrix": [
        100.0,
        0.0,
        0.0,
        0.0,
        0.0,
        -1.629206793918314e-05,
        -99.99999999999868,
        0.0,
        0.0,
        99.99999999999868,
        -1.629206793918314e-05,
        0.0,
        0.0,
        4.907151699066162,
        0.0,
        1.0
      ],
      "name": "Bed Mattress"
    },
    {
      "mesh": 0,
      "name": "Bed Mattress_Bed Mattress_0"
    },
    {
      "children": [
        6
      ],
      "matrix": [
        100.0,
        2.013219140919527e-15,
        -7.3755208593711e-15,
        0.0,
        -7.123469832075295e-15,
        59.56638107562606,
        -80.32338542139081,
        0.0,
        2.776245091467274e-15,
        80.32338542139081,
        59.56638107562606,
        0.0,
        1.2973913655843473e-15,
        64.9435806274414,
        -80.2846908569336,
        1.0
      ],
      "name": "Bed Pillow"
    },
    {
      "mesh": 1,
      "name": "Bed Pillow_Bed Pillow_0"
    },
    {
      "children": [
        8
      ],
      "matrix": [
        100.0,
        0.0,
        0.0,
        0.0,
        0.0,
        -1.629206793918314e-05,
        -99.99999999999868,
        0.0,
        0.0,
        99.99999999999868,
        -1.629206793918314e-05,
        0.0,
        0.0,
        0.0,
        0.0,
        1.0
      ],
      "name": "Bed Frame"
    },
    {
      "mesh": 2,
      "name": "Bed Frame_Bed Frame_0"
    }
  ],
  "samplers": [
    {
      "magFilter": 9729,
      "minFilter": 9987,
      "wrapS": 10497,
      "wrapT": 10497
    }
  ],
  "scene": 0,
  "scenes": [
    {
      "name": "Sketchfab_Scene",
      "nodes": [
        0
      ]
    }
  ],
  "textures": [
    {
      "sampler": 0,
      "source": 0
    },
    {
      "sampler": 0,
      "source": 1
    },
    {
      "sampler": 0,
      "source": 2
    },
    {
      "sampler": 0,
      "source": 3
    }
  ]
}
