{
  "accessors": [
    {
      "bufferView": 2,
      "componentType": 5126,
      "count": 2034,
      "max": [
        1237.6378173828125,
        8.300000190734863,
        -6.197390079498291
      ],
      "min": [
        827.23779296875,
        -250.5,
        -677.29736328125
      ],
      "type": "VEC3"
    },
    {
      "bufferView": 2,
      "byteOffset": 24408,
      "componentType": 5126,
      "count": 2034,
      "max": [
        1.0,
        1.0,
        1.0
      ],
      "min": [
        -1.0,
        -1.0,
        -1.0
      ],
      "type": "VEC3"
    },
    {
      "bufferView": 1,
      "componentType": 5126,
      "count": 2034,
      "max": [
        7.242441177368164,
        3.7035071849823
      ],
      "min": [
        -7.242441177368164,
        -1.3697506189346313
      ],
      "type": "VEC2"
    },
    {
      "bufferView": 1,
      "byteOffset": 16272,
      "componentType": 5126,
      "count": 2034,
      "max": [
        7.242441177368164,
        3.7035071849823
      ],
      "min": [
        -7.242441177368164,
        -1.3697506189346313
      ],
      "type": "VEC2"
    },
    {
      "bufferView": 1,
      "byteOffset": 32544,
      "componentType": 5126,
      "count": 2034,
      "max": [
        7.242441177368164,
        3.7035071849823
      ],
      "min": [
        -7.242441177368164,
        -1.3697506189346313
      ],
      "type": "VEC2"
    },
    {
      "bufferView": 1,
      "byteOffset": 48816,
      "componentType": 5126,
      "count": 2034,
      "max": [
        7.242441177368164,
        3.7035071849823
      ],
      "min": [
        -7.242441177368164,
        -1.3697506189346313
      ],
      "type": "VEC2"
    },
    {
      "bufferView": 1,
      "byteOffset": 65088,
      "componentType": 5126,
      "count": 2034,
      "max": [
        7.242441177368164,
        3.7035071849823
      ],
      "min": [
        -7.242441177368164,
        -1.3697506189346313
      ],
      "type": "VEC2"
    },
    {
      "bufferView": 1,
      "byteOffset": 81360,
      "componentType": 5126,
      "count": 2034,
      "max": [
        7.242441177368164,
        3.7035071849823
      ],
      "min": [
        -7.242441177368164,
        -1.3697506189346313
      ],
      "type": "VEC2"
    },
    {
      "bufferView": 1,
      "byteOffset": 97632,
      "componentType": 5126,
      "count": 2034,
      "max": [
        7.242441177368164,
        3.7035071849823
      ],
      "min": [
        -7.242441177368164,
        -1.3697506189346313
      ],
      "type": "VEC2"
    },
    {
      "bufferView": 1,
      "byteOffset": 113904,
      "componentType": 5126,
      "count": 2034,
      "max": [
        7.242441177368164,
        3.7035071849823
      ],
      "min": [
        -7.242441177368164,
        -1.3697506189346313
      ],
      "type": "VEC2"
    },
    {
      "bufferView": 1,
      "byteOffset": 130176,
      "componentType": 5126,
      "count": 2034,
      "max": [
        7.242441177368164,
        3.7035071849823
      ],
      "min": [
        -7.242441177368164,
        -1.3697506189346313
      ],
      "type": "VEC2"
    },
    {
      "bufferView": 1,
      "byteOffset": 146448,
      "componentType": 5126,
      "count": 2034,
      "max": [
        7.242441177368164,
        3.7035071849823
      ],
      "min": [
        -7.242441177368164,
        -1.3697506189346313
      ],
      "type": "VEC2"
    },
    {
      "bufferView": 0,
      "componentType": 5125,
      "count": 4170,
      "type": "SCALAR"
    },
    {
      "bufferView": 2,
      "byteOffset": 48816,
      "componentType": 5126,
      "count": 378,
      "max": [
        1237.6378173828125,
        8.300000190734863,
        -6.197390079498291
      ],
      "min": [
        827.23779296875,
        -250.5,
        -677.29736328125
      ],
      "type": "VEC3"
    },
    {
      "bufferView": 2,
      "byteOffset": 53352,
      "componentType": 5126,
      "count": 378,
      "max": [
        1.0,
        2.595368176519035e-17,
        1.0
      ],
      "min": [
        -1.0,
        -2.595368176519035e-17,
        -1.0
      ],
      "type": "VEC3"
    },
    {
      "bufferView": 1,
      "byteOffset": 162720,
      "componentType": 5126,
      "count": 378,
      "max": [
        6.537163257598877,
        0.06233595684170723
      ],
      "min": [
        -6.537163257598877,
        -1.3697506189346313
      ],
      "type": "VEC2"
    },
    {
      "bufferView": 1,
      "byteOffset": 165744,
      "componentType": 5126,
      "count": 378,
      "max": [
        6.537163257598877,
        0.06233595684170723
      ],
      "min": [
        -6.537163257598877,
        -1.3697506189346313
      ],
      "type": "VEC2"
    },
    {
      "bufferView": 1,
      "byteOffset": 168768,
      "componentType": 5126,
      "count": 378,
      "max": [
        6.537163257598877,
        0.06233595684170723
      ],
      "min": [
        -6.537163257598877,
        -1.3697506189346313
      ],
      "type": "VEC2"
    },
    {
      "bufferView": 1,
      "byteOffset": 171792,
      "componentType": 5126,
      "count": 378,
      "max": [
        6.537163257598877,
        0.06233595684170723
      ],
      "min": [
        -6.537163257598877,
        -1.3697506189346313
      ],
      "type": "VEC2"
    },
    {
      "bufferView": 1,
      "byteOffset": 174816,
      "componentType": 5126,
      "count": 378,
      "max": [
        6.537163257598877,
        0.06233595684170723
      ],
      "min": [
        -6.537163257598877,
        -1.3697506189346313
      ],
      "type": "VEC2"
    },
    {
      "bufferView": 1,
      "byteOffset": 177840,
      "componentType": 5126,
      "count": 378,
      "max": [
        6.537163257598877,
        0.06233595684170723
      ],
      "min": [
        -6.537163257598877,
        -1.3697506189346313
      ],
      "type": "VEC2"
    },
    {
      "bufferView": 1,
      "byteOffset": 180864,
      "componentType": 5126,
      "count": 378,
      "max": [
        6.537163257598877,
        0.06233595684170723
      ],
      "min": [
        -6.537163257598877,
        -1.3697506189346313
      ],
      "type": "VEC2"
    },
    {
      "bufferView": 1,
      "byteOffset": 183888,
      "componentType": 5126,
      "count": 378,
      "max": [
        6.537163257598877,
        0.06233595684170723
      ],
      "min": [
        -6.537163257598877,
        -1.3697506189346313
      ],
      "type": "VEC2"
    },
    {
      "bufferView": 1,
      "byteOffset": 186912,
      "componentType": 5126,
      "count": 378,
      "max": [
        6.537163257598877,
        0.06233595684170723
      ],
      "min": [
        -6.537163257598877,
        -1.3697506189346313
      ],
      "type": "VEC2"
    },
    {
      "bufferView": 1,
      "byteOffset": 189936,
      "componentType": 5126,
      "count": 378,
      "max": [
        6.537163257598877,
        0.06233595684170723
      ],
      "min": [
        -6.537163257598877,
        -1.3697506189346313
      ],
      "type": "VEC2"
    },
    {
      "bufferView": 0,
      "byteOffset": 16680,
      "componentType": 5125,
      "count": 780,
      "type": "SCALAR"
    }
  ],
  "asset": {
    "extras": {
      "author": "ilaida (https://sketchfab.com/ilaida)",
      "license": "CC-BY-4.0 (http://creativecommons.org/licenses/by/4.0/)",
      "source": "https://sketchfab.com/3d-models/dinner-table-0005ea6ae6944ebd90a4c8de52ecfb2f",
      "title": "Dinner table"
    },
    "generator": "Sketchfab-12.68.0",
    "version": "2.0"
  },
  "bufferViews": [
    {
      "buffer": 0,
      "byteLength": 19800,
      "name": "floatBufferViews",
      "target": 34963
    },
    {
      "buffer": 0,
      "byteLength": 192960,
      "byteOffset": 19800,
      "byteStride": 8,
      "name": "floatBufferViews",
      "target": 34962
    },
    {
      "buffer": 0,
      "byteLength": 57888,
      "byteOffset": 212760,
      "byteStride": 12,
      "name": "floatBufferViews",
      "target": 34962
    }
  ],
  "buffers": [
    {
      "byteLength": 270648,
      "uri": "scene.bin"
    }
  ],
  "images": [
    {
      "uri": "textures/Wood_Veneer_01_baseColor.jpeg"
    },
    {
      "uri": "textures/material_baseColor.jpeg"
    }
  ],
  "materials": [
    {
      "doubleSided": true,
      "name": "Wood_Veneer_01",
      "pbrMetallicRoughness": {
        "baseColorTexture": {
          "index": 0
        },
        "metallicFactor": 0.0,
        "roughnessFactor": 0.9302134966129227
      }
    },
    {
      "doubleSided": true,
      "name": "material",
      "pbrMetallicRoughness": {
        "baseColorTexture": {
          "index": 1
        },
        "metallicFactor": 0.0,
        "roughnessFactor": 0.9302134966129227
      }
    }
  ],
  "meshes": [
    {
      "name": "Mesh1_Wood_Veneer_01_0",
      "primitives": [
        {
          "attributes": {
            "NORMAL": 1,
            "POSITION": 0,
            "TEXCOORD_0": 2,
            "TEXCOORD_1": 3,
            "TEXCOORD_2": 4,
            "TEXCOORD_3": 5,
            "TEXCOORD_4": 6,
            "TEXCOORD_5": 7,
            "TEXCOORD_6": 8,
            "TEXCOORD_7": 9,
            "TEXCOORD_8": 10,
            "TEXCOORD_9": 11
          },
          "indices": 12,
          "material": 0,
          "mode": 4
        }
      ]
    },
    {
      "name": "Mesh1___0",
      "primitives": [
        {
          "attributes": {
            "NORMAL": 14,
            "POSITION": 13,
            "TEXCOORD_0": 15,
            "TEXCOORD_1": 16,
            "TEXCOORD_2": 17,
            "TEXCOORD_3": 18,
            "TEXCOORD_4": 19,
            "TEXCOORD_5": 20,
            "TEXCOORD_6": 21,
            "TEXCOORD_7": 22,
            "TEXCOORD_8": 23,
            "TEXCOORD_9": 24
          },
          "indices": 25,
          "material": 1,
          "mode": 4
        }
      ]
    }
  ],
  "nodes": [
    {
      "children": [
        1
      ],
      "matrix": [
        1.0,
        0.0,
        0.0,
        0.0,
        0.0,
        2.220446049250313e-16,
        -1.0,
        0.0,
        0.0,
        1.0,
        2.220446049250313e-16,
        0.0,
        0.0,
        0.0,
        0.0,
        1.0
      ],
      "name": "Sketchfab_model"
    },
    {
      "children": [
        2
      ],
      "matrix": [
        1.0,
        0.0,
        0.0,
        0.0,
        0.0,
        0.0,
        1.0,
        0.0,
        0.0,
        -1.0,
        0.0,
        0.0,
        0.0,
        0.0,
        0.0,
        1.0
      ],
      "name": "rectanular table.fbx"
    },
    {
      "children": [
        3
      ],
      "name": "RootNode"
    },
    {
      "children": [
        4
      ],
      "name": "Model"
    },
    {
      "children": [
        5,
        6
      ],
      "name": "Mesh1"
    },
    {
      "mesh": 0,
      "name": "Mesh1_Wood_Veneer_01_0"
    },
    {
      "mesh": 1,
      "name": "Mesh1___0"
    }
  ],
  "samplers": [
    {
      "magFilter": 9729,
      "minFilter": 9987,
      "wrapS": 10497,
      "wrapT": 10497
    }
  ],
  "scene": 0,
  "scenes": [
    {
      "name": "Sketchfab_Scene",
      "nodes": [
        0
      ]
    }
  ],
  "textures": [
    {
      "sampler": 0,
      "source": 0
    },
    {
      "sampler": 0,
      "source": 1
    }
  ]
}
