{
  "accessors": [
    {
      "bufferView": 2,
      "componentType": 5126,
      "count": 26604,
      "max": [
        4.365176200866699,
        15.659077644348145,
        3.897610902786255
      ],
      "min": [
        -2.924283981323242,
        6.1624860763549805,
        -2.470961093902588
      ],
      "type": "VEC3"
    },
    {
      "bufferView": 2,
      "byteOffset": 319248,
      "componentType": 5126,
      "count": 26604,
      "max": [
        0.9998497366905212,
        0.9984386563301086,
        0.9999472498893738
      ],
      "min": [
        -0.999900758266449,
        -0.9998772144317627,
        -0.9999816417694092
      ],
      "type": "VEC3"
    },
    {
      "bufferView": 1,
      "componentType": 5126,
      "count": 26604,
      "max": [
        0.9901729822158813,
        0.9929429888725281
      ],
      "min": [
        0.0039059999398887157,
        0.0039059999398887157
      ],
      "type": "VEC2"
    },
    {
      "bufferView": 0,
      "componentType": 5125,
      "count": 150000,
      "type": "SCALAR"
    }
  ],
  "asset": {
    "extras": {
      "author": "Minneapolis Institute of Art (https://sketchfab.com/artsmia)",
      "license": "CC0-1.0 (http://creativecommons.org/publicdomain/zero/1.0/)",
      "source": "https://sketchfab.com/3d-models/10th-c-bce-chinese-monk-c6efb650b99c45928b3f0c9b89006a60",
      "title": "10th C BCE Chinese monk"
    },
    "generator": "Sketchfab-12.63.0",
    "version": "2.0"
  },
  "bufferViews": [
    {
      "buffer": 0,
      "byteLength": 600000,
      "name": "floatBufferViews",
      "target": 34963
    },
    {
      "buffer": 0,
      "byteLength": 212832,
      "byteOffset": 600000,
      "byteStride": 8,
      "name": "floatBufferViews",
      "target": 34962
    },
    {
      "buffer": 0,
      "byteLength": 638496,
      "byteOffset": 812832,
      "byteStride": 12,
      "name": "floatBufferViews",
      "target": 34962
    }
  ],
  "buffers": [
    {
      "byteLength": 1451328,
      "uri": "scene.bin"
    }
  ],
  "images": [
    {
      "uri": "textures/170619_mia337_001473_805_50kMesh_OBJ_baseColor.jpeg"
    }
  ],
  "materials": [
    {
      "doubleSided": true,
      "name": "170619_mia337_001473_805_50kMesh_OBJ",
      "pbrMetallicRoughness": {
        "baseColorTexture": {
          "index": 0
        },
        "metallicFactor": 0.1767708778
      }
    }
  ],
  "meshes": [
    {
      "name": "Object_0",
      "primitives": [
        {
          "attributes": {
            "NORMAL": 1,
            "POSITION": 0,
            "TEXCOORD_0": 2
          },
          "indices": 3,
          "material": 0,
          "mode": 4
        }
      ]
    }
  ],
  "nodes": [
    {
      "children": [
        1
      ],
      "matrix": [
        -0.0219297364437403,
        -0.023040035831796587,
        -0.021543554312500216,
        0.0,
        0.01791121082620839,
        -0.030693661907372553,
        0.014593456364579198,
        0.0,
        -0.025964523385938687,
        -0.0017138281831038584,
        0.028262832585934428,
        0.0,
        -3.4731290340423584,
        9.89445781707764,
        -15.17621326446533,
        1.0
      ],
      "name": "Sketchfab_model"
    },
    {
      "children": [
        2
      ],
      "name": "170619_mia337_001473_805_50kMesh_OBJ.obj.cleaner.materialmerger.gles"
    },
    {
      "mesh": 0,
      "name": "Object_2"
    }
  ],
  "samplers": [
    {
      "magFilter": 9729,
      "minFilter": 9987,
      "wrapS": 10497,
      "wrapT": 10497
    }
  ],
  "scene": 0,
  "scenes": [
    {
      "name": "Sketchfab_Scene",
      "nodes": [
        0
      ]
    }
  ],
  "textures": [
    {
      "sampler": 0,
      "source": 0
    }
  ]
}
