{
  "accessors": [
    {
      "bufferView": 2,
      "componentType": 5126,
      "count": 54049,
      "max": [
        0.04584725946187973,
        0.07043732702732086,
        0.0445735827088356
      ],
      "min": [
        -0.04584725946187973,
        -0.07043732702732086,
        -0.0445735827088356
      ],
      "type": "VEC3"
    },
    {
      "bufferView": 2,
      "byteOffset": 648588,
      "componentType": 5126,
      "count": 54049,
      "max": [
        0.9999927282333374,
        0.9999982118606567,
        0.9999849200248718
      ],
      "min": [
        -0.99992436170578,
        -0.9999516606330872,
        -0.999945878982544
      ],
      "type": "VEC3"
    },
    {
      "bufferView": 1,
      "componentType": 5126,
      "count": 54049,
      "max": [
        0.99997478723526,
        0.9986502528190613
      ],
      "min": [
        6.77183925290592e-06,
        3.297102011856623e-05
      ],
      "type": "VEC2"
    },
    {
      "bufferView": 1,
      "byteOffset": 432392,
      "componentType": 5126,
      "count": 54049,
      "max": [
        0.99997478723526,
        0.9986502528190613
      ],
      "min": [
        6.77183925290592e-06,
        3.297102011856623e-05
      ],
      "type": "VEC2"
    },
    {
      "bufferView": 1,
      "byteOffset": 864784,
      "componentType": 5126,
      "count": 54049,
      "max": [
        0.99997478723526,
        0.9986502528190613
      ],
      "min": [
        6.77183925290592e-06,
        3.297102011856623e-05
      ],
      "type": "VEC2"
    },
    {
      "bufferView": 0,
      "componentType": 5125,
      "count": 290169,
      "type": "SCALAR"
    }
  ],
  "asset": {
    "extras": {
      "author": "RockBoyy (https://sketchfab.com/RockBoyy)",
      "license": "CC-BY-NC-SA-4.0 (http://creativecommons.org/licenses/by-nc-sa/4.0/)",
      "source": "https://sketchfab.com/3d-models/statue-of-a-chinese-fisherman-4fa77c22719848d5976b7a1867ed8b62",
      "title": "Statue of a Chinese fisherman"
    },
    "generator": "Sketchfab-12.66.0",
    "version": "2.0"
  },
  "bufferViews": [
    {
      "buffer": 0,
      "byteLength": 1160676,
      "name": "floatBufferViews",
      "target": 34963
    },
    {
      "buffer": 0,
      "byteLength": 1297176,
      "byteOffset": 1160676,
      "byteStride": 8,
      "name": "floatBufferViews",
      "target": 34962
    },
    {
      "buffer": 0,
      "byteLength": 1297176,
      "byteOffset": 2457852,
      "byteStride": 12,
      "name": "floatBufferViews",
      "target": 34962
    }
  ],
  "buffers": [
    {
      "byteLength": 3755028,
      "uri": "scene.bin"
    }
  ],
  "extensionsUsed": [
    "KHR_materials_unlit"
  ],
  "images": [
    {
      "uri": "textures/material_0_baseColor.jpeg"
    }
  ],
  "materials": [
    {
      "extensions": {
        "KHR_materials_unlit": {}
      },
      "name": "material_0",
      "pbrMetallicRoughness": {
        "baseColorTexture": {
          "index": 0
        },
        "metallicFactor": 0.0
      }
    }
  ],
  "meshes": [
    {
      "name": "Object_0",
      "primitives": [
        {
          "attributes": {
            "NORMAL": 1,
            "POSITION": 0,
            "TEXCOORD_0": 2,
            "TEXCOORD_1": 3,
            "TEXCOORD_2": 4
          },
          "indices": 5,
          "material": 0,
          "mode": 4
        }
      ]
    }
  ],
  "nodes": [
    {
      "children": [
        1
      ],
      "matrix": [
        1.0,
        0.0,
        0.0,
        0.0,
        0.0,
        2.220446049250313e-16,
        -1.0,
        0.0,
        0.0,
        1.0,
        2.220446049250313e-16,
        0.0,
        0.0,
        0.0,
        0.0,
        1.0
      ],
      "name": "Sketchfab_model"
    },
    {
      "children": [
        2
      ],
      "name": "root"
    },
    {
      "children": [
        3
      ],
      "matrix": [
        1.0,
        0.0,
        0.0,
        0.0,
        0.0,
        2.220446049250313e-16,
        1.0,
        0.0,
        0.0,
        -1.0,
        2.220446049250313e-16,
        0.0,
        0.0,
        0.0,
        0.0,
        1.0
      ],
      "name": "GLTF_SceneRootNode"
    },
    {
      "children": [
        4
      ],
      "name": "_0"
    },
    {
      "mesh": 0,
      "name": "Object_4"
    }
  ],
  "samplers": [
    {
      "magFilter": 9729,
      "minFilter": 9987,
      "wrapS": 10497,
      "wrapT": 10497
    }
  ],
  "scene": 0,
  "scenes": [
    {
      "name": "Sketchfab_Scene",
      "nodes": [
        0
      ]
    }
  ],
  "textures": [
    {
      "sampler": 0,
      "source": 0
    }
  ]
}
