{
  "accessors": [
    {
      "bufferView": 2,
      "componentType": 5126,
      "count": 65061,
      "max": [
        7.492483615875244,
        27.163978576660156,
        9.61393928527832
      ],
      "min": [
        -8.566598892211914,
        0.16707462072372437,
        -8.866135597229004
      ],
      "type": "VEC3"
    },
    {
      "bufferView": 2,
      "byteOffset": 780732,
      "componentType": 5126,
      "count": 65061,
      "max": [
        1.0,
        0.9999855756759644,
        0.9999469518661499
      ],
      "min": [
        -0.9999926090240479,
        -0.9998875856399536,
        -0.999996542930603
      ],
      "type": "VEC3"
    },
    {
      "bufferView": 3,
      "componentType": 5126,
      "count": 65061,
      "max": [
        0.9999850392341614,
        0.9999999403953552,
        0.9999910593032837,
        1.0
      ],
      "min": [
        -0.9999884963035583,
        -0.9999982714653015,
        -0.9999800324440002,
        1.0
      ],
      "type": "VEC4"
    },
    {
      "bufferView": 1,
      "componentType": 5126,
      "count": 65061,
      "max": [
        0.9981476664543152,
        0.9999452233314514
      ],
      "min": [
        0.000182850519195199,
        0.0018299221992492676
      ],
      "type": "VEC2"
    },
    {
      "bufferView": 1,
      "byteOffset": 520488,
      "componentType": 5126,
      "count": 65061,
      "max": [
        0.9981476664543152,
        0.9999452233314514
      ],
      "min": [
        0.000182850519195199,
        0.0018299221992492676
      ],
      "type": "VEC2"
    },
    {
      "bufferView": 1,
      "byteOffset": 1040976,
      "componentType": 5126,
      "count": 65061,
      "max": [
        0.9981476664543152,
        0.9999452233314514
      ],
      "min": [
        0.000182850519195199,
        0.0018299221992492676
      ],
      "type": "VEC2"
    },
    {
      "bufferView": 1,
      "byteOffset": 1561464,
      "componentType": 5126,
      "count": 65061,
      "max": [
        0.9981476664543152,
        0.9999452233314514
      ],
      "min": [
        0.000182850519195199,
        0.0018299221992492676
      ],
      "type": "VEC2"
    },
    {
      "bufferView": 0,
      "componentType": 5125,
      "count": 270000,
      "type": "SCALAR"
    }
  ],
  "asset": {
    "extras": {
      "author": "HUNNU Intangible Cultural Heritage Research Center (https://sketchfab.com/stillalivewoo)",
      "license": "CC-BY-4.0 (http://creativecommons.org/licenses/by/4.0/)",
      "source": "https://sketchfab.com/3d-models/the-kassapa-thera-clay-by-the-great-master-liu-8ae1b2e3497141cf9ca0654d7b6382ad",
      "title": "The Kassapa Thera clay by the great master Liu"
    },
    "generator": "Sketchfab-12.65.0",
    "version": "2.0"
  },
  "bufferViews": [
    {
      "buffer": 0,
      "byteLength": 1080000,
      "name": "floatBufferViews",
      "target": 34963
    },
    {
      "buffer": 0,
      "byteLength": 2081952,
      "byteOffset": 1080000,
      "byteStride": 8,
      "name": "floatBufferViews",
      "target": 34962
    },
    {
      "buffer": 0,
      "byteLength": 1561464,
      "byteOffset": 3161952,
      "byteStride": 12,
      "name": "floatBufferViews",
      "target": 34962
    },
    {
      "buffer": 0,
      "byteLength": 1040976,
      "byteOffset": 4723416,
      "byteStride": 16,
      "name": "floatBufferViews",
      "target": 34962
    }
  ],
  "buffers": [
    {
      "byteLength": 5764392,
      "uri": "scene.bin"
    }
  ],
  "images": [
    {
      "uri": "textures/material_baseColor.jpeg"
    },
    {
      "uri": "textures/material_metallicRoughness.png"
    },
    {
      "uri": "textures/material_normal.jpeg"
    }
  ],
  "materials": [
    {
      "doubleSided": true,
      "name": "material",
      "normalTexture": {
        "index": 2
      },
      "occlusionTexture": {
        "index": 1
      },
      "pbrMetallicRoughness": {
        "baseColorTexture": {
          "index": 0
        },
        "metallicFactor": 0.0,
        "metallicRoughnessTexture": {
          "index": 1
        }
      }
    }
  ],
  "meshes": [
    {
      "name": "Object_0",
      "primitives": [
        {
          "attributes": {
            "NORMAL": 1,
            "POSITION": 0,
            "TANGENT": 2,
            "TEXCOORD_0": 3,
            "TEXCOORD_1": 4,
            "TEXCOORD_2": 5,
            "TEXCOORD_3": 6
          },
          "indices": 7,
          "material": 0,
          "mode": 4
        }
      ]
    }
  ],
  "nodes": [
    {
      "children": [
        1
      ],
      "matrix": [
        1.0,
        0.0,
        0.0,
        0.0,
        0.0,
        2.220446049250313e-16,
        -1.0,
        0.0,
        0.0,
        1.0,
        2.220446049250313e-16,
        0.0,
        0.0,
        0.0,
        0.0,
        1.0
      ],
      "name": "Sketchfab_model"
    },
    {
      "children": [
        2
      ],
      "name": "root"
    },
    {
      "children": [
        3
      ],
      "matrix": [
        1.0,
        0.0,
        0.0,
        0.0,
        0.0,
        2.220446049250313e-16,
        1.0,
        0.0,
        0.0,
        -1.0,
        2.220446049250313e-16,
        0.0,
        0.0,
        0.0,
        0.0,
        1.0
      ],
      "name": "GLTF_SceneRootNode"
    },
    {
      "children": [
        4
      ],
      "name": "mesh2.002_0"
    },
    {
      "mesh": 0,
      "name": "Object_4"
    }
  ],
  "samplers": [
    {
      "magFilter": 9729,
      "minFilter": 9987,
      "wrapS": 10497,
      "wrapT": 10497
    }
  ],
  "scene": 0,
  "scenes": [
    {
      "name": "Sketchfab_Scene",
      "nodes": [
        0
      ]
    }
  ],
  "textures": [
    {
      "sampler": 0,
      "source": 0
    },
    {
      "sampler": 0,
      "source": 1
    },
    {
      "sampler": 0,
      "source": 2
    }
  ]
}
