{
  "accessors": [
    {
      "bufferView": 2,
      "componentType": 5126,
      "count": 1810,
      "max": [
        16.568700790405273,
        668.5897827148438,
        13.921500205993652
      ],
      "min": [
        -16.568599700927734,
        -89.57510375976563,
        7.692999839782715
      ],
      "type": "VEC3"
    },
    {
      "bufferView": 2,
      "byteOffset": 21720,
      "componentType": 5126,
      "count": 1810,
      "max": [
        0.9999885559082031,
        1.0,
        0.9999995231628418
      ],
      "min": [
        -0.9999885559082031,
        -1.0,
        -0.9999995231628418
      ],
      "type": "VEC3"
    },
    {
      "bufferView": 1,
      "componentType": 5126,
      "count": 1810,
      "max": [
        0.592199981212616,
        2.468100070953369
      ],
      "min": [
        0.40779998898506165,
        -1.4680999517440796
      ],
      "type": "VEC2"
    },
    {
      "bufferView": 0,
      "componentType": 5125,
      "count": 10848,
      "type": "SCALAR"
    },
    {
      "bufferView": 2,
      "byteOffset": 43440,
      "componentType": 5126,
      "count": 33176,
      "max": [
        54.17959976196289,
        -32.96039962768555,
        21.31920051574707
      ],
      "min": [
        -54.17959976196289,
        -305.220703125,
        0.2953000068664551
      ],
      "type": "VEC3"
    },
    {
      "bufferView": 2,
      "byteOffset": 441552,
      "componentType": 5126,
      "count": 33176,
      "max": [
        1.0,
        1.0,
        1.0
      ],
      "min": [
        -1.0,
        -1.0,
        -1.0
      ],
      "type": "VEC3"
    },
    {
      "bufferView": 3,
      "componentType": 5126,
      "count": 33176,
      "max": [
        1.0,
        1.0,
        0.916783332824707,
        1.0
      ],
      "min": [
        -1.0,
        -1.0,
        -0.8716743588447571,
        1.0
      ],
      "type": "VEC4"
    },
    {
      "bufferView": 1,
      "byteOffset": 14480,
      "componentType": 5126,
      "count": 33176,
      "max": [
        2.9719998836517334,
        1.493399977684021
      ],
      "min": [
        -1.972000002861023,
        -0.4934000074863434
      ],
      "type": "VEC2"
    },
    {
      "bufferView": 0,
      "byteOffset": 43392,
      "componentType": 5125,
      "count": 180480,
      "type": "SCALAR"
    },
    {
      "bufferView": 2,
      "byteOffset": 839664,
      "componentType": 5126,
      "count": 17226,
      "max": [
        17.398500442504883,
        -91.9031982421875,
        19.720699310302734
      ],
      "min": [
        -17.398500442504883,
        -236.7111053466797,
        1.8938000202178955
      ],
      "type": "VEC3"
    },
    {
      "bufferView": 2,
      "byteOffset": 1046376,
      "componentType": 5126,
      "count": 17226,
      "max": [
        0.9999595880508423,
        0.999998927116394,
        0.9999995231628418
      ],
      "min": [
        -0.9999595880508423,
        -0.9999655485153198,
        -0.9999995231628418
      ],
      "type": "VEC3"
    },
    {
      "bufferView": 3,
      "byteOffset": 530816,
      "componentType": 5126,
      "count": 17226,
      "max": [
        1.0,
        0.9999998211860657,
        0.9746333956718445,
        1.0
      ],
      "min": [
        -1.0,
        -0.9999997615814209,
        -0.8912513256072998,
        -1.0
      ],
      "type": "VEC4"
    },
    {
      "bufferView": 1,
      "byteOffset": 279888,
      "componentType": 5126,
      "count": 17226,
      "max": [
        1.9013999700546265,
        0.7865999937057495
      ],
      "min": [
        -0.9014000296592712,
        0.2134000062942505
      ],
      "type": "VEC2"
    },
    {
      "bufferView": 0,
      "byteOffset": 765312,
      "componentType": 5125,
      "count": 92928,
      "type": "SCALAR"
    },
    {
      "bufferView": 2,
      "byteOffset": 1253088,
      "componentType": 5126,
      "count": 5356,
      "max": [
        8.323399543762207,
        -260.0325927734375,
        21.300399780273438
      ],
      "min": [
        -8.323399543762207,
        -276.6792907714844,
        0.3140000104904175
      ],
      "type": "VEC3"
    },
    {
      "bufferView": 2,
      "byteOffset": 1317360,
      "componentType": 5126,
      "count": 5356,
      "max": [
        1.0,
        1.0,
        1.0
      ],
      "min": [
        -1.0,
        -1.0,
        -1.0
      ],
      "type": "VEC3"
    },
    {
      "bufferView": 3,
      "byteOffset": 806432,
      "componentType": 5126,
      "count": 5356,
      "max": [
        1.0,
        1.0,
        0.7872001528739929,
        1.0
      ],
      "min": [
        -1.0,
        -1.0,
        -0.7873548865318298,
        1.0
      ],
      "type": "VEC4"
    },
    {
      "bufferView": 1,
      "byteOffset": 417696,
      "componentType": 5126,
      "count": 5356,
      "max": [
        1.5951999425888062,
        1.6057000160217285
      ],
      "min": [
        -0.5943999886512756,
        0.2870999872684479
      ],
      "type": "VEC2"
    },
    {
      "bufferView": 0,
      "byteOffset": 1137024,
      "componentType": 5125,
      "count": 27648,
      "type": "SCALAR"
    },
    {
      "bufferView": 2,
      "byteOffset": 1381632,
      "componentType": 5126,
      "count": 6000,
      "max": [
        6.800899982452393,
        -161.22909545898438,
        20.107799530029297
      ],
      "min": [
        -6.800899982452393,
        -174.84750366210938,
        1.506600022315979
      ],
      "type": "VEC3"
    },
    {
      "bufferView": 2,
      "byteOffset": 1453632,
      "componentType": 5126,
      "count": 6000,
      "max": [
        1.0,
        1.0,
        0.9999880790710449
      ],
      "min": [
        -1.0,
        -1.0,
        -0.9999880790710449
      ],
      "type": "VEC3"
    },
    {
      "bufferView": 3,
      "byteOffset": 892128,
      "componentType": 5126,
      "count": 6000,
      "max": [
        1.0,
        1.0,
        0.9191914796829224,
        1.0
      ],
      "min": [
        -1.0,
        -1.0,
        -0.9191095232963562,
        1.0
      ],
      "type": "VEC4"
    },
    {
      "bufferView": 1,
      "byteOffset": 460544,
      "componentType": 5126,
      "count": 6000,
      "max": [
        1.583299994468689,
        0.6890000104904175
      ],
      "min": [
        -0.5827000141143799,
        -0.5831000208854675
      ],
      "type": "VEC2"
    },
    {
      "bufferView": 0,
      "byteOffset": 1247616,
      "componentType": 5125,
      "count": 29568,
      "type": "SCALAR"
    },
    {
      "bufferView": 2,
      "byteOffset": 1525632,
      "componentType": 5126,
      "count": 1566,
      "max": [
        16.753700256347656,
        -91.91480255126953,
        19.81999969482422
      ],
      "min": [
        -16.753799438476563,
        -236.6772003173828,
        1.7943999767303467
      ],
      "type": "VEC3"
    },
    {
      "bufferView": 2,
      "byteOffset": 1544424,
      "componentType": 5126,
      "count": 1566,
      "max": [
        1.0,
        0.9999973773956299,
        0.9998703002929688
      ],
      "min": [
        -1.0,
        -0.999846875667572,
        -0.9998703002929688
      ],
      "type": "VEC3"
    },
    {
      "bufferView": 1,
      "byteOffset": 508544,
      "componentType": 5126,
      "count": 1566,
      "max": [
        1.3073999881744385,
        0.6832000017166138
      ],
      "min": [
        -0.3073999881744385,
        0.31679999828338623
      ],
      "type": "VEC2"
    },
    {
      "bufferView": 0,
      "byteOffset": 1365888,
      "componentType": 5125,
      "count": 9216,
      "type": "SCALAR"
    }
  ],
  "asset": {
    "extras": {
      "author": "leeeck (https://sketchfab.com/leeeck)",
      "license": "CC-BY-4.0 (http://creativecommons.org/licenses/by/4.0/)",
      "source": "https://sketchfab.com/3d-models/chinese-sword-jian-2682618468cd4addae5ce961d7f1e00b",
      "title": "Chinese Sword Jian"
    },
    "generator": "Sketchfab-13.31.0",
    "version": "2.0"
  },
  "bufferViews": [
    {
      "buffer": 0,
      "byteLength": 1402752,
      "name": "floatBufferViews",
      "target": 34963
    },
    {
      "buffer": 0,
      "byteLength": 521072,
      "byteOffset": 1402752,
      "byteStride": 8,
      "name": "floatBufferViews",
      "target": 34962
    },
    {
      "buffer": 0,
      "byteLength": 1563216,
      "byteOffset": 1923824,
      "byteStride": 12,
      "name": "floatBufferViews",
      "target": 34962
    },
    {
      "buffer": 0,
      "byteLength": 988128,
      "byteOffset": 3487040,
      "byteStride": 16,
      "name": "floatBufferViews",
      "target": 34962
    }
  ],
  "buffers": [
    {
      "byteLength": 4475168,
      "uri": "scene.bin"
    }
  ],
  "extensionsUsed": [
    "KHR_materials_clearcoat"
  ],
  "images": [
    {
      "uri": "textures/blade_baseColor.jpeg"
    },
    {
      "uri": "textures/blade_metallicRoughness.png"
    },
    {
      "uri": "textures/brass_baseColor.jpeg"
    },
    {
      "uri": "textures/brass_metallicRoughness.png"
    },
    {
      "uri": "textures/brass_normal.png"
    },
    {
      "uri": "textures/material_baseColor.jpeg"
    },
    {
      "uri": "textures/material_metallicRoughness.png"
    },
    {
      "uri": "textures/material_normal.png"
    },
    {
      "uri": "textures/wood_baseColor.jpeg"
    },
    {
      "uri": "textures/wood_metallicRoughness.png"
    }
  ],
  "materials": [
    {
      "doubleSided": true,
      "name": "blade",
      "pbrMetallicRoughness": {
        "baseColorTexture": {
          "index": 0
        },
        "metallicRoughnessTexture": {
          "index": 1
        },
        "roughnessFactor": 0.5409540295741854
      }
    },
    {
      "doubleSided": true,
      "name": "brass",
      "normalTexture": {
        "index": 4,
        "scale": 0.4556204361765674
      },
      "pbrMetallicRoughness": {
        "baseColorFactor": [
          0.7542880130682302,
          0.7542880130682302,
          0.7542880130682302,
          1.0
        ],
        "baseColorTexture": {
          "index": 2
        },
        "metallicRoughnessTexture": {
          "index": 3
        },
        "roughnessFactor": 0.7116212163694212
      }
    },
    {
      "doubleSided": true,
      "name": "material",
      "normalTexture": {
        "index": 7
      },
      "pbrMetallicRoughness": {
        "baseColorTexture": {
          "index": 5
        },
        "metallicRoughnessTexture": {
          "index": 6
        }
      }
    },
    {
      "doubleSided": true,
      "extensions": {
        "KHR_materials_clearcoat": {
          "clearcoatFactor": 0.5958113396155111,
          "clearcoatRoughnessFactor": 0.04
        }
      },
      "name": "wood",
      "pbrMetallicRoughness": {
        "baseColorFactor": [
          0.608001852958028,
          0.608001852958028,
          0.608001852958028,
          1.0
        ],
        "baseColorTexture": {
          "index": 8
        },
        "metallicFactor": 0.0,
        "metallicRoughnessTexture": {
          "index": 9
        },
        "roughnessFactor": 0.5165730028891516
      }
    }
  ],
  "meshes": [
    {
      "name": "Object_0",
      "primitives": [
        {
          "attributes": {
            "NORMAL": 1,
            "POSITION": 0,
            "TEXCOORD_0": 2
          },
          "indices": 3,
          "material": 0,
          "mode": 4
        }
      ]
    },
    {
      "name": "Object_1",
      "primitives": [
        {
          "attributes": {
            "NORMAL": 5,
            "POSITION": 4,
            "TANGENT": 6,
            "TEXCOORD_0": 7
          },
          "indices": 8,
          "material": 1,
          "mode": 4
        }
      ]
    },
    {
      "name": "Object_2",
      "primitives": [
        {
          "attributes": {
            "NORMAL": 10,
            "POSITION": 9,
            "TANGENT": 11,
            "TEXCOORD_0": 12
          },
          "indices": 13,
          "material": 1,
          "mode": 4
        }
      ]
    },
    {
      "name": "Object_3",
      "primitives": [
        {
          "attributes": {
            "NORMAL": 15,
            "POSITION": 14,
            "TANGENT": 16,
            "TEXCOORD_0": 17
          },
          "indices": 18,
          "material": 2,
          "mode": 4
        }
      ]
    },
    {
      "name": "Object_4",
      "primitives": [
        {
          "attributes": {
            "NORMAL": 20,
            "POSITION": 19,
            "TANGENT": 21,
            "TEXCOORD_0": 22
          },
          "indices": 23,
          "material": 2,
          "mode": 4
        }
      ]
    },
    {
      "name": "Object_5",
      "primitives": [
        {
          "attributes": {
            "NORMAL": 25,
            "POSITION": 24,
            "TEXCOORD_0": 26
          },
          "indices": 27,
          "material": 3,
          "mode": 4
        }
      ]
    }
  ],
  "nodes": [
    {
      "children": [
        1
      ],
      "matrix": [
        1.0,
        0.0,
        0.0,
        0.0,
        0.0,
        6.123232939436859e-17,
        1.0,
        0.0,
        0.0,
        -1.0,
        6.123232939436859e-17,
        0.0,
        0.0,
        0.0,
        0.0,
        1.0
      ],
      "name": "Sketchfab_model"
    },
    {
      "children": [
        2,
        3,
        4,
        5,
        6,
        7
      ],
      "name": "chinese_jian.obj.cleaner.materialmerger.gles"
    },
    {
      "mesh": 0,
      "name": "Object_2"
    },
    {
      "mesh": 1,
      "name": "Object_3"
    },
    {
      "mesh": 2,
      "name": "Object_4"
    },
    {
      "mesh": 3,
      "name": "Object_5"
    },
    {
      "mesh": 4,
      "name": "Object_6"
    },
    {
      "mesh": 5,
      "name": "Object_7"
    }
  ],
  "samplers": [
    {
      "magFilter": 9729,
      "minFilter": 9987,
      "wrapS": 10497,
      "wrapT": 10497
    }
  ],
  "scene": 0,
  "scenes": [
    {
      "name": "Sketchfab_Scene",
      "nodes": [
        0
      ]
    }
  ],
  "textures": [
    {
      "sampler": 0,
      "source": 0
    },
    {
      "sampler": 0,
      "source": 1
    },
    {
      "sampler": 0,
      "source": 2
    },
    {
      "sampler": 0,
      "source": 3
    },
    {
      "sampler": 0,
      "source": 4
    },
    {
      "sampler": 0,
      "source": 5
    },
    {
      "sampler": 0,
      "source": 6
    },
    {
      "sampler": 0,
      "source": 7
    },
    {
      "sampler": 0,
      "source": 8
    },
    {
      "sampler": 0,
      "source": 9
    }
  ]
}
