{
  "accessors": [
    {
      "bufferView": 2,
      "componentType": 5126,
      "count": 24,
      "max": [
        -52.259334564208984,
        47.519771575927734,
        161.2591552734375
      ],
      "min": [
        -52.259334564208984,
        -3.4785385131835938,
        64.48621368408203
      ],
      "type": "VEC3"
    },
    {
      "bufferView": 2,
      "byteOffset": 288,
      "componentType": 5126,
      "count": 24,
      "max": [
        -1.0,
        0.0,
        0.0
      ],
      "min": [
        -1.0,
        0.0,
        0.0
      ],
      "type": "VEC3"
    },
    {
      "bufferView": 1,
      "componentType": 5126,
      "count": 24,
      "max": [
        0.682614803314209,
        1.0
      ],
      "min": [
        0.317385196685791,
        0.560157060623169
      ],
      "type": "VEC2"
    },
    {
      "bufferView": 0,
      "componentType": 5125,
      "count": 60,
      "type": "SCALAR"
    },
    {
      "bufferView": 2,
      "byteOffset": 576,
      "componentType": 5126,
      "count": 1254,
      "max": [
        26.594879150390625,
        135.078857421875,
        177.05224609375
      ],
      "min": [
        -55.677734375,
        -91.03762817382813,
        0.0
      ],
      "type": "VEC3"
    },
    {
      "bufferView": 2,
      "byteOffset": 15624,
      "componentType": 5126,
      "count": 1254,
      "max": [
        1.0,
        1.0,
        1.0
      ],
      "min": [
        -1.0,
        -1.0,
        -1.0
      ],
      "type": "VEC3"
    },
    {
      "bufferView": 1,
      "byteOffset": 192,
      "componentType": 5126,
      "count": 1254,
      "max": [
        1.0,
        1.0
      ],
      "min": [
        0.0,
        0.0
      ],
      "type": "VEC2"
    },
    {
      "bufferView": 0,
      "byteOffset": 240,
      "componentType": 5125,
      "count": 2304,
      "type": "SCALAR"
    }
  ],
  "asset": {
    "extras": {
      "author": "asads (https://sketchfab.com/asads)",
      "license": "CC-BY-4.0 (http://creativecommons.org/licenses/by/4.0/)",
      "source": "https://sketchfab.com/3d-models/closet-7cbdf8c4137c469aa4ac38dd06b4f9be",
      "title": "Closet"
    },
    "generator": "Sketchfab-12.68.0",
    "version": "2.0"
  },
  "bufferViews": [
    {
      "buffer": 0,
      "byteLength": 9456,
      "name": "floatBufferViews",
      "target": 34963
    },
    {
      "buffer": 0,
      "byteLength": 10224,
      "byteOffset": 9456,
      "byteStride": 8,
      "name": "floatBufferViews",
      "target": 34962
    },
    {
      "buffer": 0,
      "byteLength": 30672,
      "byteOffset": 19680,
      "byteStride": 12,
      "name": "floatBufferViews",
      "target": 34962
    }
  ],
  "buffers": [
    {
      "byteLength": 50352,
      "uri": "scene.bin"
    }
  ],
  "materials": [
    {
      "doubleSided": true,
      "name": "03_-_Default",
      "pbrMetallicRoughness": {
        "baseColorFactor": [
          0.588235,
          0.776471,
          0.94902,
          1.0
        ],
        "metallicFactor": 0.0,
        "roughnessFactor": 0.6
      }
    },
    {
      "doubleSided": true,
      "name": "Material_72",
      "pbrMetallicRoughness": {
        "baseColorFactor": [
          0.921569,
          0.921569,
          0.921569,
          1.0
        ],
        "metallicFactor": 0.0,
        "roughnessFactor": 0.6
      }
    }
  ],
  "meshes": [
    {
      "name": "Object_0",
      "primitives": [
        {
          "attributes": {
            "NORMAL": 1,
            "POSITION": 0,
            "TEXCOORD_0": 2
          },
          "indices": 3,
          "material": 0,
          "mode": 4
        }
      ]
    },
    {
      "name": "Object_1",
      "primitives": [
        {
          "attributes": {
            "NORMAL": 5,
            "POSITION": 4,
            "TEXCOORD_0": 6
          },
          "indices": 7,
          "material": 1,
          "mode": 4
        }
      ]
    }
  ],
  "nodes": [
    {
      "children": [
        1
      ],
      "matrix": [
        1.0,
        0.0,
        0.0,
        0.0,
        0.0,
        2.220446049250313e-16,
        -1.0,
        0.0,
        0.0,
        1.0,
        2.220446049250313e-16,
        0.0,
        0.0,
        0.0,
        0.0,
        1.0
      ],
      "name": "Sketchfab_model"
    },
    {
      "children": [
        2
      ],
      "matrix": [
        1.0,
        0.0,
        0.0,
        0.0,
        0.0,
        1.0,
        0.0,
        0.0,
        0.0,
        0.0,
        1.0,
        0.0,
        -5.962493896484375,
        22.02061653137207,
        0.0,
        1.0
      ],
      "name": "Box02"
    },
    {
      "children": [
        3,
        4
      ],
      "matrix": [
        1.0,
        0.0,
        0.0,
        0.0,
        0.0,
        1.0,
        0.0,
        0.0,
        0.0,
        0.0,
        1.0,
        0.0,
        5.962493896484375,
        -22.02061653137207,
        -0.0,
        1.0
      ],
      "name": "3DSMeshMatrix"
    },
    {
      "mesh": 0,
      "name": "Object_3"
    },
    {
      "mesh": 1,
      "name": "Object_4"
    }
  ],
  "scene": 0,
  "scenes": [
    {
      "name": "Sketchfab_Scene",
      "nodes": [
        0
      ]
    }
  ]
}
